<?xml version="1.0" encoding="utf-8"?>
<!-- Generator: Adobe Illustrator 16.0.0, SVG Export Plug-In . SVG Version: 6.00 Build 0)  -->
<!DOCTYPE svg PUBLIC "-//W3C//DTD SVG 1.1//EN" "http://www.w3.org/Graphics/SVG/1.1/DTD/svg11.dtd">
<svg version="1.1" id="Layer_1" xmlns="http://www.w3.org/2000/svg" xmlns:xlink="http://www.w3.org/1999/xlink" x="0px" y="0px"
	 width="773.115px" height="367px" viewBox="178.384 -41.38 773.115 367" enable-background="new 178.384 -41.38 773.115 367"
	 xml:space="preserve">
<polygon fill="#CAE1F5" points="581.499,-41.38 516.499,325.62 566.134,299.447 621.864,-15.207 "/>
<polygon fill="#CAE1F5" points="664.173,-16.952 626.499,-41.38 621.863,-15.207 659.537,9.221 "/>
<g>
	<defs>
		<rect id="SVGID_1_" x="119.499" y="-135.38" width="960" height="560"/>
	</defs>
	<clipPath id="SVGID_2_">
		<use xlink:href="#SVGID_1_"  overflow="visible"/>
	</clipPath>
	<g clip-path="url(#SVGID_2_)">
		<defs>
			<rect id="SVGID_3_" x="561.499" y="275.019" width="50.962" height="50.602"/>
		</defs>
		<clipPath id="SVGID_4_">
			<use xlink:href="#SVGID_3_"  overflow="visible"/>
		</clipPath>
		<polygon clip-path="url(#SVGID_4_)" fill="#CAE1F5" points="566.135,299.447 561.499,325.62 607.825,301.193 612.461,275.019 		
			"/>
	</g>
</g>
<polygon fill="#95C3EC" points="659.537,9.22 621.863,-15.207 566.134,299.447 612.461,275.019 "/>
<polygon fill="#95C3EB" points="659.537,9.22 621.863,-15.207 566.134,299.447 612.461,275.019 "/>
<polygon fill="#CAE1F5" points="951.499,142.12 668.499,-41.38 664.173,-16.952 909.499,142.12 607.825,301.193 603.499,325.62 "/>
<polygon fill="#95C3EC" points="664.173,-16.952 659.537,9.221 864.499,142.12 612.461,275.019 607.825,301.193 909.499,142.12 "/>
<polygon fill="#95C3EB" points="664.173,-16.952 659.537,9.221 864.499,142.12 612.461,275.019 607.825,301.193 909.499,142.12 "/>
<polygon fill="#95C3EC" points="864.499,142.12 659.537,9.221 612.461,275.019 "/>
<polygon fill="#95C3EC" points="864.499,142.12 659.537,9.221 612.461,275.019 "/>
<polygon fill="#60A5E1" points="864.499,142.12 659.537,9.221 612.461,275.019 "/>
<polygon fill="#264574" points="178.384,62.442 252.173,62.442 252.173,90.036 206.484,90.036 206.484,117.026 252.173,117.026 
	252.173,144.215 206.484,144.215 206.484,211.132 178.384,211.132 "/>
<g>
	<defs>
		<rect id="SVGID_5_" x="-1.319" y="-174.506" width="1113" height="649.251"/>
	</defs>
	<clipPath id="SVGID_6_">
		<use xlink:href="#SVGID_5_"  overflow="visible"/>
	</clipPath>
	<path clip-path="url(#SVGID_6_)" fill="#264574" d="M314.419,58.702c21.037,0,39.125,7.616,54.265,22.844
		c15.139,15.229,22.708,33.795,22.708,55.694c0,21.701-7.469,40.063-22.405,55.09s-33.057,22.54-54.365,22.54
		c-22.319,0-40.863-7.715-55.63-23.146c-14.768-15.43-22.15-33.763-22.15-54.987c0-14.218,3.438-27.292,10.316-39.22
		s16.335-21.379,28.371-28.353C287.564,62.19,300.526,58.702,314.419,58.702"/>
	<path clip-path="url(#SVGID_6_)" fill="#264574" d="M391.016,62.442h29.986c16.423,0,28.117,1.466,35.083,4.398
		c6.967,2.931,12.571,7.8,16.811,14.605c4.24,6.807,6.361,14.858,6.361,24.157c0,9.771-2.341,17.941-7.023,24.512
		c-4.684,6.57-11.741,11.541-21.173,14.91l35.222,66.107h-30.939l-33.437-62.974h-2.589v62.974h-28.303V62.442z"/>
	<path clip-path="url(#SVGID_6_)" fill="#264574" d="M619.533,86.701l-19.932,19.71c-12.611-13.342-27.314-20.014-44.107-20.014
		c-14.637,0-26.896,4.852-36.775,14.556c-9.881,9.704-14.822,21.497-14.822,35.378c0,14.354,5.127,26.519,15.381,36.489
		c10.254,9.975,22.902,14.961,37.945,14.961c9.783,0,18.029-2.057,24.74-6.166c6.713-4.11,12.125-10.546,16.242-19.307h-43.061
		v-26.583h74.799l0.203,6.267c0,13.005-3.371,25.337-10.109,36.996c-6.736,11.657-15.465,20.552-26.18,26.684
		c-10.713,6.13-23.283,9.198-37.701,9.198c-15.434,0-29.197-3.354-41.293-10.059c-12.096-6.702-21.664-16.254-28.705-28.656
		c-7.043-12.397-10.563-25.775-10.563-40.127c0-19.677,6.502-36.794,19.509-51.349c15.432-17.317,35.512-25.977,60.244-25.977
		c12.938,0,25.031,2.393,36.287,7.176C601.135,69.922,610.436,76.864,619.533,86.701"/>
	<polygon clip-path="url(#SVGID_6_)" fill="#264574" points="629.314,62.442 710.48,62.442 710.48,90.138 657.412,90.138 
		657.412,117.026 710.48,117.026 710.48,144.215 657.412,144.215 657.412,183.334 710.48,183.334 710.48,211.132 629.314,211.132 	
		"/>
</g>
</svg>
