<?xml version="1.0" encoding="utf-8"?>
<!-- Generator: Adobe Illustrator 16.0.0, SVG Export Plug-In . SVG Version: 6.00 Build 0)  -->
<!DOCTYPE svg PUBLIC "-//W3C//DTD SVG 1.1//EN" "http://www.w3.org/Graphics/SVG/1.1/DTD/svg11.dtd">
<svg version="1.1" id="Layer_1" xmlns="http://www.w3.org/2000/svg" xmlns:xlink="http://www.w3.org/1999/xlink" x="0px" y="0px"
	 width="1045px" height="1737px" viewBox="0 0 1045 1737" enable-background="new 0 0 1045 1737" xml:space="preserve">
<g>
	<path fill="#3B5A86" d="M1017.623,842c5.5,0,8.302-4.167,6.226-9.26L918.894,575.26c-2.076-5.093-8.274-9.26-13.774-9.26H713.809
		c-5.5,0-12.118,3.971-14.706,8.823l-34.858,65.354c-2.588,4.853-0.206,8.823,5.294,8.823h72.91c5.5,0,11.552,4.224,13.448,9.387
		l27.635,75.227c1.896,5.163,3.08,9.387,2.63,9.387s-5.318,0-10.818,0H282.547c-5.5,0-10.362,0-10.805,0s0.686-4.246,2.508-9.436
		l26.379-75.129c1.822-5.189,7.813-9.436,13.313-9.436h141.231c5.5,0,6.048-2.153,1.219-4.784l-134.797-73.433
		c-4.83-2.631-13.281-4.784-18.781-4.784H133.667c-5.5,0-11.602,4.206-13.559,9.345L22.11,832.655
		c-1.958,5.14,0.941,9.345,6.441,9.345H1017.623z"/>
</g>
<polygon fill="#3B5A86" points="666.162,565 380.7,565 384.933,566 664.933,566 "/>
<polygon fill="#3B5A86" points="619.43,652 620.658,649 537.291,649 541.523,652 "/>
<g>
	<path fill="#3B5A86" d="M664.42,565c0.958,0,2.809-1.981,4.113-4.402L860.033,205.16c1.304-2.421,0.392-5.47-2.029-6.776
		L532.458,22.708c-2.42-1.306-5.468-0.394-6.772,2.027l-255.77,474.672c-1.304,2.421-0.393,5.472,2.026,6.78l104.359,56.435
		c2.419,1.308,6.104,2.378,8.191,2.378c2.086,0,4.2,0.225,4.697,0.5s-0.257,0.5-1.677,0.5c-1.419,0-0.605,1.076,1.81,2.392
		L532.9,646.608c2.415,1.316,5.064,2.392,5.888,2.392c0.824,0,2.719,0.675,4.212,1.5s1.771,1.5,0.619,1.5
		c-1.153,0-0.115,1.068,2.306,2.373l51.563,27.795c2.421,1.305,5.469,0.392,6.774-2.029l12.796-23.738
		c1.305-2.421,1.617-4.401,0.693-4.401s-1.317-0.675-0.875-1.5s1.474-1.5,2.293-1.5s2.549-1.985,3.843-4.412l39.567-74.177
		c1.294-2.426,1.726-4.412,0.958-4.412s-1.274-0.225-1.127-0.5S663.462,565,664.42,565z M544.142,339.881
		c2.471-1.207,4.275-4.433,4.009-7.17l-11.77-120.93c-0.267-2.737,1.481-3.881,3.883-2.543l30.323,16.896
		c2.402,1.338,4.542,4.677,4.755,7.418l3.637,46.805c0.213,2.742,0.516,7.231,0.673,9.977l1.556,32.38
		c0.081,2.749,0.415,5.148,0.743,5.332c0.328,0.183,2.541-0.8,4.917-2.184l28.194-16.305c2.411-1.323,6.38-3.443,8.82-4.71
		l41.103-21.347c2.44-1.267,6.403-1.209,8.805,0.129l29.131,16.229c2.402,1.338,2.34,3.409-0.138,4.601l-108.72,52.294
		c-2.478,1.192-4.306,4.409-4.062,7.148l11.357,127.437c0.244,2.739-1.521,3.885-3.924,2.547l-31.122-17.338
		c-2.402-1.338-4.523-4.678-4.713-7.422l-3.405-49.237c-0.19-2.744-0.477-7.234-0.637-9.979l-1.661-35.04
		c-0.066-2.749-0.3-5.098-0.519-5.22s-2.348,0.9-4.732,2.272l-30.25,17.285c-2.419,1.308-6.381,3.44-8.806,4.739l-43.291,23.181
		c-2.424,1.298-6.374,1.265-8.776-0.073l-29.928-16.673c-2.402-1.338-2.346-3.421,0.125-4.627L544.142,339.881z"/>
</g>
<g>
	<path fill="#3B5A86" d="M492.057,1101.962c-8.431-12.117-20.756-18.212-36.915-18.203c-16.159,0.01-27.979,6.071-35.411,18.109
		c-7.372,11.937-9.052,36.505-9.052,36.505c-0.375,5.487-0.652,10.646-0.614,11.466c0.037,0.819,0.777,5.933,1.644,11.364
		c0,0,3.836,24.024,12.05,35.309c8.147,11.192,19.867,16.753,35.211,16.751c15.513-0.001,27.066-5.565,34.706-16.762
		c7.703-11.289,10.213-35.258,10.213-35.258c0.573-5.47,1.034-10.615,1.025-11.435c-0.01-0.819-0.599-5.951-1.311-11.405
		C503.603,1138.403,500.416,1113.979,492.057,1101.962z"/>
</g>
<g>
	<path fill="#3B5A86" d="M28.188,878c-5.5,0-9.439,4.465-8.753,9.922l103.202,821.156c0.686,5.457,5.747,9.922,11.247,9.922h771.003
		c5.5,0,10.6-4.46,11.333-9.911l110.461-821.178c0.733-5.451-3.167-9.911-8.667-9.911H28.188z M348.941,1080.824
		c-4.384,0.575-9.163,5.385-10.621,10.688l-37.479,136.314c-1.458,5.304-7.151,9.643-12.651,9.643l-17.352-0.001
		c-5.5,0-11.9-4.079-14.223-9.064l-64.004-137.385c-2.323-4.985-7.835-9.531-12.25-10.102s-8.595-5.501-9.289-10.957l-0.417-3.276
		c-0.694-5.456,3.238-9.923,8.738-9.926l50.625-0.032c5.5-0.003,10.46,4.471,11.022,9.941l0.332,3.226
		c0.563,5.471-2.204,10.535-6.147,11.253c-3.943,0.719-5.474,5.475-3.401,10.569l36.906,90.689
		c2.073,5.095,4.487,11.421,5.365,14.06s1.767,4.797,1.975,4.797c0.208,0,0.663-2.104,1.011-4.678
		c0.348-2.572,1.588-9.074,2.755-14.449l19.543-89.949c1.167-5.374-1.187-10.355-5.232-11.07s-7.746-5.782-8.225-11.261l-0.279-3.2
		c-0.479-5.479,3.63-9.965,9.13-9.969l50.683-0.032c5.5-0.004,10.282,4.484,10.627,9.974l0.199,3.17
		C356.629,1075.286,353.325,1080.248,348.941,1080.824z M542.38,1149.92c-0.001,0.752-0.732,5.807-1.624,11.233
		c0,0-6.188,37.64-21.513,54.237c-15.14,16.397-34.934,24.521-59.513,24.521c-24.493,0-44.635-8.121-60.572-24.51
		c-16.129-16.585-24.419-54.295-24.419-54.295c-1.181-5.372-2.184-10.381-2.228-11.132c-0.044-0.75,0.378-5.841,0.938-11.313
		c0,0,3.998-39.087,18.884-57.211c15.077-18.359,35.777-27.638,61.954-27.654c26.271-0.017,47.663,9.236,64.022,27.584
		c16.152,18.117,22.48,57.302,22.48,57.302C541.665,1144.112,542.381,1149.169,542.38,1149.92z M722.602,1097.004
		c-0.358,5.488-5.151,9.98-10.651,9.983l-9.318,0.004c-5.5,0.003-10.092-4.494-10.204-9.993l-0.021-1.028
		c-0.112-5.499-4.704-9.996-10.204-9.993l-15.329,0.009c-5.5,0.003-10.188,4.501-10.419,9.996l-4.506,107.392
		c-0.23,5.495,3.962,10.79,9.317,11.768c5.355,0.977,9.516,6.27,9.246,11.764l-0.028,0.573c-0.27,5.494-4.99,9.988-10.49,9.988
		l-55.387,0.001c-5.5,0-9.904-4.499-9.787-9.998l0.012-0.548c0.117-5.499,4.642-10.797,10.054-11.772l0.033-0.007
		c5.413-0.976,9.969-6.272,10.126-11.771l3.06-107.363c0.157-5.498-4.215-9.994-9.715-9.991l-15.181,0.008
		c-5.5,0.003-10.407,4.486-10.905,9.964l-0.1,1.1c-0.498,5.478-5.405,9.961-10.905,9.964l-9.16,0.004
		c-5.5,0.003-9.976-4.495-9.946-9.995l0.164-30.541c0.03-5.5,4.554-10.003,10.054-10.006l152.839-0.098
		c5.5-0.003,9.707,4.484,9.349,9.973L722.602,1097.004z M886.064,1098.39c-0.669,5.459-5.717,9.928-11.217,9.931l-9.338,0.004
		c-5.5,0.003-9.838-4.492-9.641-9.988l0.088-2.461c0.197-5.496-4.141-9.99-9.641-9.988l-41.497,0.023
		c-5.5,0.002-10.404,4.486-10.898,9.965l-2.425,26.883c-0.494,5.479,3.602,9.958,9.102,9.956l43.996-0.017
		c5.5-0.002,9.495,4.468,8.877,9.933l-0.921,8.152c-0.618,5.465-5.623,9.938-11.123,9.939l-43.356,0.011
		c-5.5,0.002-10.404,4.484-10.898,9.963l-2.745,30.44c-0.494,5.479,3.602,9.96,9.102,9.959l39.307-0.005
		c5.5,0,10.845-4.421,11.878-9.823l0.229-1.2c1.033-5.402,6.378-9.823,11.878-9.823l8.235-0.002c5.5,0,9.452,4.466,8.782,9.925
		l-3.359,27.373c-0.67,5.459-5.718,9.926-11.218,9.926H735.311c-5.5,0-9.688-4.489-9.306-9.976l0.042-0.602
		c0.381-5.486,5.123-10.772,10.536-11.745l0.095-0.018c5.414-0.973,10.187-6.256,10.607-11.74l8.436-109.95
		c0.421-5.483-3.653-10.824-9.053-11.867l-0.554-0.106c-5.4-1.043-9.506-6.386-9.124-11.872l0.224-3.212
		c0.382-5.486,5.194-9.979,10.694-9.982h0.655c5.5-0.004,14.5-0.01,20-0.014l112.664-0.072c5.5-0.003,9.452,4.461,8.783,9.92
		L886.064,1098.39z"/>
</g>
</svg>
