<?xml version="1.0" encoding="utf-8"?>
<!-- Generator: Adobe Illustrator 16.0.0, SVG Export Plug-In . SVG Version: 6.00 Build 0)  -->
<!DOCTYPE svg PUBLIC "-//W3C//DTD SVG 1.1//EN" "http://www.w3.org/Graphics/SVG/1.1/DTD/svg11.dtd">
<svg version="1.1" id="Layer_1" xmlns="http://www.w3.org/2000/svg" xmlns:xlink="http://www.w3.org/1999/xlink" x="0px" y="0px"
	 width="1914.728px" height="1482.726px" viewBox="0 0 1914.728 1482.726" enable-background="new 0 0 1914.728 1482.726"
	 xml:space="preserve">
<g>
	<path fill-rule="evenodd" clip-rule="evenodd" fill="#3B5A86" d="M1906.757,833.437c-4.659-123.225-10.447-246.406-15.607-369.614
		c-4.78-114.183-7.863-228.465-14.835-342.511c-1.712-28.004-12.237-57.056-25.375-82.134
		c-7.048-13.454-27.926-26.809-43.151-27.513c-48.47-2.243-98.021-3.681-145.704,3.808
		c-168.377,26.443-336.117,56.905-504.154,85.515c-177.655,30.249-355.38,60.077-533.059,90.171
		c-153.003,25.912-305.901,52.457-459.011,77.735C60.795,286.237,4.095,358.24,15.039,464.435
		c7.985,77.476,16.993,154.85,25.812,232.239c10.946,96.048,20.604,192.284,33.947,288.003
		c6.441,46.218,26.904,88.195,73.854,106.549c76.402,29.866,154.015,55.921,235.072,13.518c4.86-2.544,10.537-3.53,15.838-5.228
		c101.952-32.664,203.904-65.323,309.149-99.041c2.137,10.137,4.1,18.133,5.485,26.229c9.729,56.859,17.967,114.017,29.41,170.527
		c9.464,46.732,37.149,98.144,104.942,101.359c20.024,0.95,40.065,5.229,59.703,9.708c26.762,6.104,51.971,3.708,77.552-6.294
		c282.405-110.44,564.911-220.625,847.535-330.502c36.917-14.351,59.924-40.394,68.394-78.105
		C1906.093,873.983,1907.513,853.373,1906.757,833.437z M1154.203,958.197c-36.184,12.637-72.471,25.017-109.019,36.551
		c-18.998,5.996-28.199,17.785-30.784,37.465c-6.99,53.209-16.137,106.152-22.287,159.448c-2.621,22.705-9.565,38.03-33.771,42.163
		c-8.037,1.371-15.634,5.3-28.057,9.695c4.936-34.049,9.35-64.203,13.673-94.37c7.22-50.37,14.57-100.719,21.489-151.129
		c4.114-29.971,19.477-49.462,48.972-58.547c53.802-16.571,107.305-34.116,165.038-52.569c-3.287,22.282-5.152,41.485-9.536,60.096
		C1168.795,951.774,1160.211,956.099,1154.203,958.197z M1341.782,1089.642c-42.598,17.271-85.799,33.07-128.926,49.018
		c-21.203,7.838-33.463,1.628-34.234-20.973c-0.804-23.439,2.496-47.166,5.546-70.567c10.051-77.133,7.025-69.719,76.359-93.167
		c18.481-6.249,36.631-13.734,55.451-18.668c18.26-4.784,20.709-15.438,14.997-35.568c-43.856,14.461-85.899,28.324-132.748,43.772
		c3.403-22.247,5.514-41.229,9.722-59.733c1.001-4.405,8.519-8.731,13.896-10.515c44.304-14.709,88.734-29.053,133.29-42.98
		c19.987-6.249,28.67-0.517,31.699,20.193c0.993,6.789,0.846,13.959-0.084,20.778c-9.037,66.285-17.91,132.604-28.208,198.696
		C1357.386,1077.356,1349.035,1086.702,1341.782,1089.642z M1584.436,801.285c-4.799,47.111-11.873,94.001-18.479,140.914
		c-11.232,79.769-3.745,64.982-74.592,92.173c-33.688,12.932-67.601,25.267-105.043,39.224c2.284-18.944,3.923-34.584,6.09-50.153
		c9.027-64.876,18.595-129.68,27.046-194.629c1.84-14.149,6.443-22.241,21.048-26.445c35.466-10.214,70.354-22.414,105.606-33.395
		C1573.929,760.31,1587.553,770.691,1584.436,801.285z M1644.588,877.548c-3.274,24.135-6.531,48.273-9.795,72.41
		c-4.954,36.64-4.952,36.64-47.187,46.153c1.017-9.545,1.71-18.09,2.87-26.57c8.868-64.811,17.851-129.603,26.751-194.408
		c4.87-35.467,5.59-36.194,46.986-42.006C1657.475,782.707,1651.027,830.127,1644.588,877.548z M1657.667,499.675
		c-1.517-0.169-3.034-0.337-4.552-0.507c-2.986,10.313-5.755,20.692-8.995,30.923c-15.228,48.081-37.658,91.533-79.603,122.209
		c-70.446,51.52-158.899,37.899-210.64-32.143c-30.929-41.873-48.673-88.994-56.888-140.029c-1.744-10.841-3.209-21.73-5.091-34.557
		c-15.583,19.099-29.497,36.153-45.001,55.153c35.777,67.57,72.492,136.912,110.935,209.516
		c-25.076,7.559-47.834,15.42-71.192,20.556c-4.324,0.95-12.976-8.043-16.397-14.233c-31.018-56.122-61.301-112.65-91.854-169.03
		c-2.904-5.362-6.193-10.515-12.298-20.817c-0.899,9.75-1.974,13.975-1.563,18.051c6.648,65.885,12.918,131.817,20.707,197.569
		c1.794,15.148-2.236,21.5-16.515,24.852c-18.771,4.406-37.144,10.509-58.684,16.75c-6.395-57.983-12.524-113.588-18.655-169.193
		c-1.246-0.047-2.494-0.092-3.743-0.137c-4.178,16.617-7.507,33.503-12.687,49.804c-20.22,63.624-50.951,120.655-105.302,162.145
		c-85.396,65.192-187.596,57.888-262.984-18.762c-38.682-39.329-62.075-87.037-75.983-139.866
		c-1.391-5.281-2.96-10.517-5.156-18.286c-34.984,8.729-69.115,17.246-105.454,26.314c1.148,13.172,1.782,25.452,3.346,37.615
		c9.34,72.579,18.56,145.182,28.678,217.654c1.869,13.397-0.133,20.47-14.382,24.098c-25.579,6.514-50.707,14.81-79.817,23.494
		c-27.918-209.939-55.579-417.937-83.505-627.927c85.499-15.991,168.744-31.563,254.343-47.574
		c4.651,36.968,9.489,71.3,12.549,105.791c0.325,3.65-9.242,10.631-15.152,11.983c-38.725,8.848-77.607,17.109-116.657,24.386
		c-14.509,2.703-20.096,8.104-17.553,23.534c4.948,30.032,8.227,60.34,12.484,92.726c36.911-8.392,71.631-15.303,105.574-24.956
		c5.729-1.628,10.415-14.723,11.657-23.103c10.69-72.022,36.608-136.865,85.546-191.884
		c99.57-111.948,253.685-95.078,333.487,37.031c9.205,15.238,16.911,31.383,28.313,46.132
		c-6.264-59.276-12.527-118.552-19.076-180.547c54.02-8.488,105.318-26.176,159.637-21.13c41.417,3.847,62.273,33.569,77.915,67.775
		c5.42,11.851,8.619,24.717,14.642,42.447c4.331-11.797,7.07-19.046,9.661-26.345c15.838-44.641,37.913-85.341,74.42-116.763
		c70.025-60.279,166.198-51.756,224.835,19.358c7.072,8.576,9.618,15.318,3.71,25.853c-11.197,19.961-20.907,40.757-32.146,63.01
		c-7.89-7.246-14.296-13.324-20.907-19.17c-47.123-41.679-107.006-39.354-148.117,8.772
		c-48.385,56.639-58.766,124.164-43.097,194.737c6.307,28.408,18.654,57.769,35.908,81.012
		c46.714,62.929,132.039,53.926,168.084-15.713c8.404-16.239,13.46-34.212,22.182-56.913
		c-36.176,9.234-66.191,16.897-100.179,25.573c-2.711-29.604-5.824-57.548-7.128-85.579c-0.161-3.469,8.821-9.34,14.423-10.784
		c41.164-10.621,82.408-21.023,123.934-30.104c14.437-3.156,19.131-8.349,17.626-23.747
		c-6.854-70.056-11.959-140.282-18.604-210.361c-1.39-14.649,1.738-21.052,17.269-23.656
		c51.339-8.619,102.417-18.803,156.243-28.882c2.331,29.33,5.048,56.165,5.951,83.059c0.131,3.882-7.878,10.431-13.102,11.694
		c-26.406,6.388-53.043,11.959-79.793,16.721c-12.646,2.251-17.891,7.132-16.145,20.707c2.926,22.713,4.237,45.632,6.494,71.544
		c37.205-8.104,72.762-15.851,110.663-24.108c2.262,27.957,5.081,53.472,5.684,79.041c0.106,4.476-8.38,11.681-14.131,13.336
		c-26.774,7.693-54.148,13.301-80.886,21.101c-5.285,1.542-12.633,9.663-12.374,14.384c2.056,37.491,5.721,74.892,9.22,116.206
		c36.805-10.119,71.793-19.739,109.057-29.983c2.434,28.126,5.141,53.65,6.37,79.247c0.21,4.337-5.058,11.751-9.259,13.063
		c-51.791,16.186-103.852,31.501-159.276,48.065C1664.882,577.041,1661.274,538.356,1657.667,499.675z M1843.62,722.59
		c-7.081,51.946-14.273,111.438-24.12,170.49c-1.684,10.094-12.938,22.268-22.803,26.644
		c-31.775,14.088-64.874,25.248-97.654,37.001c-18.977,6.803-27.576,1.342-29.679-18.765c-0.934-8.911-0.529-18.15,0.646-27.06
		c7.014-53.179,15.136-106.222,21.377-159.486c2.653-22.639,13.471-34.9,34.982-40.87c26.152-7.256,51.819-16.264,77.68-24.568
		C1835.888,675.757,1844.339,681.932,1843.62,722.59z"/>
	<path fill-rule="evenodd" clip-rule="evenodd" fill="#3B5A86" d="M435.788,1253.317c-33.35-12.049-66.663-24.21-100.107-35.991
		c-28.604-10.078-57.375-19.689-86.404-29.62c-7.597,35.063-1.289,46.87,28.263,56.642c43.301,14.318,86.69,28.367,133.903,43.793
		c-43.368,46.02-83.051,88.933-123.766,130.842c-12.241,12.601-15.765,25.869-10.803,41.622c1.886,5.983,6.029,14.848,10.329,15.6
		c5.888,1.027,14.171-2.999,19.168-7.416c9.321-8.241,16.958-18.38,25.399-27.632c39.411-43.199,79.178-86.077,118.162-129.655
		C470.811,1288.161,464.366,1263.643,435.788,1253.317z"/>
	<path fill-rule="evenodd" clip-rule="evenodd" fill="#3B5A86" d="M646.145,1189.768c-48.465-19.303-96.994-38.461-145.686-57.185
		c-8.58-3.299-18.087-4.191-27.382-6.243c-4.186,36.348-0.063,43.71,29.813,54.348c38.455,13.691,77.029,27.054,119.396,41.905
		c-24.312,26.447-45.021,48.912-65.66,71.441c-17.892,19.528-35.973,38.895-53.446,58.794c-9.569,10.9-9.642,39.983-0.104,46.253
		c17.193,11.299,23.346-5.499,31.315-14.355c41.955-46.637,83.459-93.681,124.879-140.795
		C677.552,1223.132,671.922,1200.035,646.145,1189.768z"/>
	<path fill-rule="evenodd" clip-rule="evenodd" fill="#3B5A86" d="M1237.304,1064.713c1.351,0.178,2.866,0.811,4.03,0.414
		c15.15-5.16,30.296-10.339,45.354-15.758c33.7-12.131,33.68-12.188,34.46-54.563c-23.573,8.326-45.22,15.632-66.606,23.628
		C1233.79,1026.192,1227.943,1042.572,1237.304,1064.713z"/>
	<path fill-rule="evenodd" clip-rule="evenodd" fill="#3B5A86" d="M1493.272,844.941c-26.386,4.231-35.914,18.87-37.516,44.917
		c-2.058,33.473-8.427,66.682-13.371,103.2c23.736-8.563,44.562-14.343,63.568-23.785c7.569-3.761,14.268-15.033,15.925-23.901
		c5.851-31.338,9.444-63.104,13.648-94.741c0.672-5.043,0.094-10.253,0.094-18.76
		C1519.273,837.059,1506.563,842.811,1493.272,844.941z"/>
	<path fill-rule="evenodd" clip-rule="evenodd" fill="#3B5A86" d="M1749.766,759.361c-14.884,4.08-21.34,13.521-23.074,28.324
		c-3.233,27.598-7.51,55.07-10.977,82.643c-0.811,6.467-0.118,13.12-0.118,24.024c19.479-7.005,33.514-13.022,48.102-17.039
		c16.503-4.542,23.596-14.604,25.233-31.226c2.587-26.259,6.812-52.355,9.923-78.571c0.827-6.97,0.124-14.125,0.124-24.042
		C1779.891,749.705,1765.008,755.184,1749.766,759.361z"/>
</g>
</svg>
